# xmcd
#
# Track frame offsets:
#	150
#	20588
#	45522
#	63725
#	85505
#	101918
#	120369
#	139789
#	158364
#	172755
#	187831
#	206291
#	226609
#	252754
#	271491
#
# Disc length: 3961 seconds
#
# Revision: 1
# Processed by: cddbd v1.5.2PL0 Copyright (c) Steve Scherf et al.
# Submitted via: audiograbber 1.83.01
#
DISCID=b00f770f
DTITLE=Lionel Richie - Greatest Hits Of Lionel Richie - 1
DYEAR=1900
DGENRE=Pop
TTITLE0=Dancing On The Ceiling
TTITLE1=Penny Lover
TTITLE2=Say You Say Me
TTITLE3=My Destiny
TTITLE4=Ballerina Girl
TTITLE5=My Love
TTITLE6=All Night Long (All Night)
TTITLE7=Hello
TTITLE8=Stuck On You
TTITLE9=Truly
TTITLE10=You Are
TTITLE11=Do It To Me
TTITLE12=Love Oh Love
TTITLE13=Running With The Night
TTITLE14=Love Will Conquer All15
EXTD=
EXTT0=
EXTT1=
EXTT2=
EXTT3=
EXTT4=
EXTT5=
EXTT6=
EXTT7=
EXTT8=
EXTT9=
EXTT10=
EXTT11=
EXTT12=
EXTT13=
EXTT14=
PLAYORDER=
